<svg xmlns="http://www.w3.org/2000/svg" xmlns:xlink="http://www.w3.org/1999/xlink" viewBox="0 0 776 88" overflow="visible"><path d="M 516.138 22 L 519.725 22.4 L 519.725 24 L 515.34 24.8 L 513.348 27.2 L 510.956 35.6 L 509.362 42.8 L 503.384 66.8 L 502.985 69.2 L 502.985 72.4 L 504.579 74 L 508.166 74.8 L 508.166 76 L 487.441 76 L 487.441 74.8 L 492.224 73.6 L 493.818 72 L 496.209 64 L 499.797 49.2 L 502.188 39.2 L 502.188 38.4 L 497.007 47.2 L 491.825 55.6 L 483.455 69.6 L 479.47 76 L 476.281 76 L 475.883 74.8 L 475.086 67.2 L 473.89 52.8 L 473.093 46.8 L 472.296 38.8 L 470.701 45.2 L 469.506 50.8 L 468.709 53.2 L 467.114 60.8 L 465.52 66.8 L 465.122 69.2 L 465.122 73.2 L 468.31 74.4 L 469.904 75.2 L 469.506 76 L 453.165 76 L 453.165 74.8 L 457.549 73.6 L 459.143 72 L 461.136 65.6 L 466.317 44.8 L 470.303 28.4 L 470.303 26 L 468.31 24.8 L 465.122 23.6 L 465.52 22.4 L 478.274 22.4 L 479.071 26.4 L 480.666 45.2 L 481.064 50.4 L 481.463 50.8 L 482.26 60.4 L 482.658 62.4 L 486.644 56 L 491.427 48 L 497.007 38.8 L 501.789 30.8 L 505.775 24.4 L 506.971 22.4 Z M 407.33 22.4 L 420.483 22.4 L 420.881 23.6 L 422.077 38.4 L 422.874 44 L 424.468 62.8 L 428.055 57.2 L 434.034 47.2 L 440.411 36.8 L 446.389 26.8 L 449.179 22.4 L 461.933 22.4 L 461.933 24 L 457.549 24.8 L 455.556 27.2 L 453.962 32.4 L 451.57 42.4 L 448.78 53.6 L 446.389 63.6 L 445.193 68 L 445.193 73.6 L 449.976 74.8 L 449.976 76 L 429.649 76 L 429.649 74.8 L 433.635 74 L 436.026 72 L 438.816 62 L 441.208 52.4 L 443.201 44 L 443.998 38.8 L 440.809 44.4 L 437.621 49.6 L 433.237 56.8 L 424.867 70.8 L 421.678 76 L 418.49 76 L 418.091 75.6 L 417.294 65.6 L 416.497 60.4 L 414.903 41.6 L 414.504 39.6 L 413.707 41.6 L 411.714 49.6 L 409.721 58 L 408.127 64.8 L 407.33 68 L 406.931 72.4 L 407.729 73.6 L 411.714 74.8 L 411.714 76 L 394.975 76 L 395.373 74.8 L 398.96 74 L 400.554 73.6 L 401.352 72 L 403.743 64 L 409.721 39.2 L 412.91 26.4 L 410.917 24.8 L 407.33 24 Z M 341.169 0 L 348.742 0.4 L 357.51 3.2 L 362.293 4.8 L 362.691 6.4 L 360.3 14 L 359.104 20 L 358.706 20.4 L 355.916 20.4 L 354.72 12 L 352.727 8 L 349.539 5.6 L 347.546 4.8 L 345.155 4.4 L 341.567 4.4 L 337.582 5.2 L 331.205 8.4 L 326.821 11.6 L 323.234 15.2 L 319.248 21.2 L 315.262 28.8 L 312.472 36.8 L 310.878 43.6 L 310.48 46.8 L 310.48 60.4 L 311.675 66 L 314.864 72.4 L 317.654 75.6 L 320.842 78 L 326.422 79.6 L 331.603 79.2 L 336.785 77.2 L 341.169 74 L 344.357 70.8 L 347.546 66.4 L 347.944 66 L 350.336 66 L 351.133 68 L 349.539 71.2 L 346.35 75.2 L 343.56 78 L 337.98 81.6 L 333.995 83.6 L 328.415 85.2 L 321.241 85.2 L 316.458 84 L 310.081 80.8 L 305.697 76.8 L 302.907 72.8 L 300.914 68.4 L 298.921 61.2 L 298.523 57.2 L 298.523 51.6 L 299.32 45.2 L 301.313 37.6 L 304.501 29.6 L 308.088 23.2 L 312.074 17.6 L 316.857 12 L 322.835 7.2 L 329.212 3.6 L 333.995 1.6 L 338.379 0.4 Z M 41.849 3.2 L 47.827 3.2 L 54.204 4.4 L 63.371 7.6 L 64.168 8 L 63.371 12 L 61.379 19.2 L 60.581 23.2 L 57.393 23.2 L 56.197 14.8 L 54.204 10.8 L 51.016 8.4 L 46.632 7.2 L 43.443 7.2 L 37.066 8.8 L 32.682 11.2 L 27.899 14.8 L 25.109 17.6 L 20.327 24.8 L 15.544 34.8 L 13.95 40 L 12.355 46.4 L 11.957 49.6 L 11.957 63.2 L 13.153 68.8 L 16.341 75.2 L 19.131 78.4 L 22.319 80.8 L 25.508 82 L 30.689 82.4 L 34.675 81.6 L 40.255 78.8 L 44.24 75.2 L 47.429 71.6 L 49.023 69.2 L 51.813 68.8 L 52.61 70 L 52.212 72.4 L 49.422 76 L 45.835 80 L 41.849 83.2 L 35.472 86.4 L 31.885 87.6 L 29.892 88 L 22.319 88 L 17.537 86.8 L 12.754 84.4 L 8.768 81.2 L 5.978 78 L 2.79 72.4 L 0.797 65.6 L 0 59.6 L 0 54.8 L 1.196 46.4 L 2.79 40.8 L 5.181 34.4 L 9.167 26.8 L 12.355 22 L 16.74 16.8 L 19.928 13.6 L 25.109 9.6 L 31.486 6 L 37.066 4 Z M 380.627 21.2 L 389.395 21.2 L 394.178 23.2 L 396.569 25.2 L 399.359 29.6 L 401.352 35.6 L 401.75 40.4 L 401.352 44.8 L 399.359 53.2 L 396.569 60 L 392.982 66 L 388.199 71.2 L 384.214 74 L 379.431 76.4 L 374.648 77.6 L 367.873 77.6 L 363.488 76 L 361.097 74.4 L 357.909 70.8 L 355.517 65.2 L 354.72 60.8 L 354.72 56 L 355.517 50.4 L 357.909 43.2 L 361.097 36.8 L 365.083 31.2 L 369.865 26.4 L 374.25 23.6 L 379.032 21.6 Z M 383.815 23.6 L 379.829 24.8 L 376.242 27.2 L 373.452 30 L 370.663 34 L 367.075 41.6 L 364.684 48.8 L 363.488 56.4 L 363.488 64 L 364.684 68.8 L 367.075 72.8 L 370.663 74.8 L 373.851 74.8 L 377.438 73.2 L 379.829 71.6 L 382.619 68.8 L 386.206 63.2 L 388.996 57.6 L 391.786 49.2 L 392.982 42 L 392.982 34 L 391.786 29.6 L 389.395 26 L 386.206 24 Z M 586.683 22 L 587.879 23.2 L 592.662 37.6 L 598.241 54.8 L 599.836 59.2 L 599.836 60.8 L 600.633 60.8 L 602.227 53.2 L 606.611 35.2 L 607.807 30 L 607.807 26 L 607.408 24.8 L 603.423 24 L 603.821 22.4 L 619.764 22.4 L 618.967 24 L 615.38 25.2 L 613.785 26.8 L 611.793 32.8 L 609.003 44.8 L 605.416 59.2 L 603.423 68.4 L 601.829 74.8 L 600.633 77.6 L 598.241 77.6 L 597.046 74.8 L 585.487 40 L 584.292 36 L 583.495 35.6 L 583.096 39.6 L 580.306 51.2 L 576.719 66 L 576.321 68.4 L 576.321 73.2 L 580.306 74.8 L 580.306 76 L 564.364 76 L 564.762 74.8 L 568.748 73.6 L 570.741 71.2 L 572.734 64 L 580.705 30.8 L 580.705 27.2 L 578.712 25.2 L 577.118 24.4 L 574.328 24 L 574.328 22.4 Z M 708.244 22.4 L 742.521 22.4 L 741.724 26.4 L 740.129 34.8 L 739.332 35.6 L 737.339 35.6 L 736.941 35.2 L 736.542 30.4 L 735.347 28 L 733.354 26.4 L 731.76 26 L 721.397 25.6 L 719.803 32.8 L 717.81 40.4 L 716.614 46.4 L 722.194 46 L 725.383 44.8 L 726.977 42.8 L 728.97 38.8 L 731.76 38.8 L 730.564 45.2 L 729.368 49.6 L 728.172 55.6 L 726.977 58.4 L 724.187 58.4 L 724.187 52 L 722.194 50 L 715.419 49.6 L 715.02 52.8 L 712.629 62.4 L 711.034 69.2 L 711.034 72 L 711.831 72.8 L 721.397 72.8 L 725.781 71.2 L 728.97 68.8 L 731.361 66 L 733.752 61.2 L 736.941 61.2 L 735.347 68 L 732.955 76 L 696.288 76 L 696.288 74.8 L 699.875 74 L 701.867 72.4 L 703.86 66 L 710.636 38 L 712.23 31.6 L 712.629 26 L 711.034 24.4 L 708.244 24 L 707.846 23.2 Z M 522.913 22.4 L 543.638 22.4 L 543.24 24 L 538.856 24.8 L 536.863 27.2 L 534.87 33.6 L 532.877 42 L 529.689 54.8 L 528.891 62.8 L 529.689 67.2 L 531.681 70.4 L 533.674 72 L 536.464 73.2 L 541.247 73.2 L 544.834 71.6 L 548.421 68 L 550.812 63.2 L 554.001 52.8 L 559.182 31.2 L 559.581 26.4 L 558.385 24.8 L 554.798 23.6 L 555.197 22.4 L 571.139 22.4 L 570.74 24 L 567.153 24.8 L 565.958 25.2 L 565.161 27.2 L 563.566 32.4 L 558.385 53.2 L 555.994 61.6 L 554.001 66.8 L 551.211 71.6 L 547.624 74.8 L 543.638 76.8 L 540.45 77.6 L 533.674 77.6 L 528.891 76 L 524.906 72.4 L 522.514 68.8 L 521.319 65.2 L 521.319 58.4 L 522.913 50.4 L 527.297 32.4 L 528.094 28.8 L 528.094 26.4 L 526.5 24.8 L 522.514 24 Z M 756.47 21.2 L 764.442 21.2 L 770.022 23.6 L 771.616 23.2 L 773.21 21.2 L 776 21.2 L 775.601 25.2 L 773.609 35.6 L 772.811 38.8 L 772.413 39.2 L 770.022 39.2 L 770.022 35.2 L 768.826 30 L 766.434 26.4 L 762.847 24.8 L 759.659 24.8 L 756.47 26.8 L 754.876 29.2 L 754.876 35.2 L 756.072 38.4 L 760.456 43.6 L 765.637 50 L 768.427 54.4 L 769.623 58.4 L 769.623 65.2 L 768.029 70 L 765.239 73.6 L 762.05 76 L 757.666 77.6 L 751.289 77.6 L 744.514 75.2 L 742.919 74.8 L 741.724 76 L 740.927 77.6 L 738.137 77.6 L 738.535 73.2 L 741.325 58 L 741.724 57.2 L 744.115 57.2 L 744.514 57.6 L 744.514 64.4 L 745.709 68.4 L 747.702 71.6 L 750.891 73.6 L 754.876 74 L 758.065 72.8 L 760.456 70 L 761.652 66 L 761.652 62 L 760.456 58.4 L 756.072 52 L 752.485 47.6 L 748.898 42.8 L 747.304 39.2 L 746.905 36.8 L 746.905 32.8 L 747.702 29.2 L 750.093 25.2 L 753.282 22.4 Z M 128.337 21.6 L 131.924 21.6 L 130.728 40 L 129.533 55.2 L 128.735 67.6 L 128.735 72.4 L 130.33 74.4 L 133.917 75.2 L 133.518 76.8 L 114.387 76.8 L 114.387 75.2 L 117.974 74.4 L 119.569 72.4 L 120.764 65.6 L 121.163 59.2 L 110.8 59.6 L 105.619 68.4 L 104.423 70.8 L 104.423 73.2 L 105.619 74.4 L 107.612 75.2 L 107.213 76.8 L 92.068 76.8 L 92.466 75.2 L 95.655 74 L 97.648 72 L 100.836 67.6 L 106.017 58.8 L 109.605 52.8 L 116.38 41.6 L 123.953 28.8 L 126.743 24.4 Z M 122.358 39.6 L 117.974 47.2 L 113.192 55.2 L 113.192 56 L 121.561 56 L 121.96 54 L 122.757 42.8 L 122.757 39.6 Z M 190.911 21.6 L 197.687 21.6 L 202.469 23.6 L 204.064 24.4 L 206.854 24 L 208.448 21.6 L 209.644 21.6 L 208.846 28 L 206.854 38.4 L 206.455 39.6 L 204.861 39.2 L 204.462 32 L 202.469 28 L 199.679 26 L 198.484 25.6 L 193.302 25.6 L 190.911 27.2 L 188.918 30.4 L 188.918 36 L 191.31 40.4 L 198.484 49.2 L 202.071 54.4 L 203.665 59.2 L 203.665 64.8 L 202.071 70 L 199.679 73.6 L 196.491 76.4 L 192.505 78 L 184.136 78 L 178.954 76 L 178.157 75.6 L 174.969 75.6 L 173.773 78 L 172.179 78 L 172.577 74.8 L 174.57 62.8 L 175.766 58 L 176.961 58 L 176.961 64.4 L 177.759 68 L 179.353 71.2 L 181.744 73.2 L 184.933 74.4 L 189.317 74.4 L 191.708 73.2 L 193.701 70.8 L 194.897 67.6 L 194.897 62 L 193.302 58 L 189.715 52.8 L 185.73 47.6 L 182.541 43.2 L 180.947 39.2 L 180.548 37.2 L 180.548 34 L 181.744 29.2 L 184.534 24.8 L 188.52 22.4 Z M 155.838 21.6 L 162.215 21.6 L 166.599 23.2 L 168.99 24.4 L 171.78 24 L 173.374 21.6 L 174.57 21.6 L 173.374 30 L 171.382 39.6 L 169.787 39.2 L 169.389 32.4 L 168.193 29.2 L 167.396 27.6 L 165.802 26.8 L 162.215 25.6 L 159.026 25.6 L 156.236 26.8 L 154.642 28.8 L 153.446 32 L 153.845 35.6 L 155.439 39.2 L 159.425 44.4 L 163.809 49.6 L 166.997 54.4 L 168.592 59.6 L 168.592 64.8 L 166.599 70.8 L 164.207 74 L 161.418 76.4 L 157.432 78 L 149.062 78 L 143.881 76 L 143.084 75.6 L 139.895 75.6 L 138.7 78 L 137.105 78 L 137.902 71.6 L 140.294 58.8 L 140.692 58 L 141.888 58.4 L 141.888 64.8 L 143.482 70 L 145.874 72.8 L 149.461 74.4 L 153.446 74.8 L 156.635 73.2 L 158.628 70.8 L 159.823 67.2 L 159.823 62 L 158.628 58.4 L 155.439 54 L 153.048 50.8 L 149.859 46.8 L 147.069 42.4 L 145.874 39.6 L 145.475 37.6 L 145.475 33.6 L 146.272 30 L 148.664 26 L 151.852 23.2 Z M 646.069 22.4 L 681.939 22.4 L 681.142 26.4 L 678.751 35.6 L 677.954 36.8 L 675.562 36.8 L 675.164 36 L 675.562 33.6 L 675.562 29.6 L 674.765 26.8 L 671.178 26 L 666.794 26 L 664.403 36 L 658.823 59.2 L 656.83 67.2 L 656.431 72.4 L 658.026 74 L 658.823 74.4 L 662.41 74.8 L 662.41 76 L 640.887 76 L 640.887 74.8 L 644.873 74 L 646.866 72.4 L 648.46 68.4 L 658.424 28.4 L 658.823 25.6 L 652.446 26.8 L 649.257 28.8 L 647.264 32 L 646.069 36.4 L 643.279 36.8 L 642.88 36 L 645.272 24.8 Z M 66.56 22.8 L 86.488 22.8 L 86.488 24.4 L 82.502 25.2 L 80.509 27.2 L 79.314 30.4 L 76.922 40.4 L 73.335 54.8 L 70.147 69.2 L 70.147 72.4 L 70.545 73.2 L 78.915 73.2 L 82.901 72 L 85.691 69.6 L 90.075 61.6 L 90.474 61.2 L 93.263 61.2 L 93.662 62 L 91.271 70.4 L 89.278 76.8 L 54.603 76.8 L 55.002 75.2 L 58.987 74.4 L 60.581 72.4 L 62.574 66 L 65.364 53.6 L 70.147 33.6 L 70.944 28.8 L 70.545 26 L 68.553 24.8 L 66.56 24.8 L 66.161 23.6 Z M 255.08 21.6 L 260.261 21.6 L 268.631 24 L 270.225 23.2 L 271.421 21.6 L 272.616 21.6 L 272.218 26 L 269.826 39.2 L 268.631 39.2 L 268.232 38.8 L 267.834 32.8 L 266.638 28.8 L 265.442 26.8 L 262.652 25.2 L 261.058 24.8 L 257.87 24.8 L 253.884 26 L 250.297 28.8 L 247.108 32.8 L 243.92 38.8 L 241.927 45.2 L 240.731 50.4 L 240.333 54.8 L 240.333 59.6 L 241.13 64.4 L 242.724 68.4 L 244.717 71.2 L 247.507 73.2 L 251.493 74.4 L 254.681 74 L 259.065 72.4 L 261.457 70.4 L 265.841 64.4 L 267.036 64.4 L 266.638 66.4 L 263.848 70.8 L 260.261 74.8 L 256.275 77.2 L 253.884 78 L 245.116 78 L 240.731 76.4 L 236.746 72.8 L 234.354 69.2 L 232.362 63.6 L 231.963 60.8 L 231.963 52 L 233.159 45.2 L 235.949 37.6 L 239.536 32 L 243.123 28 L 247.108 24.8 L 251.094 22.8 Z M 216.419 22.8 L 235.151 22.8 L 235.151 24.4 L 231.564 25.6 L 229.97 28 L 228.376 32.8 L 227.18 38.8 L 225.586 45.2 L 220.803 65.2 L 219.608 70.8 L 220.006 73.6 L 222.397 74.8 L 224.789 75.2 L 224.39 76.8 L 204.462 76.8 L 204.462 75.2 L 208.448 74.4 L 210.042 72.8 L 211.636 68.8 L 215.223 54 L 219.209 36.8 L 220.405 32 L 220.803 26.8 L 220.405 25.2 L 216.02 24.4 Z M 685.527 22.4 L 704.658 22.4 L 703.861 24 L 701.071 24.8 L 699.476 25.2 L 698.679 27.6 L 697.085 32 L 695.092 40.8 L 690.31 60.8 L 687.918 71.2 L 688.715 73.2 L 691.505 74.4 L 693.498 74.8 L 693.099 76 L 672.773 76 L 673.171 74.8 L 678.353 73.2 L 679.947 70 L 681.94 62.4 L 685.527 48.4 L 687.918 38 L 689.911 29.2 L 689.911 26.4 L 689.114 24.8 L 685.527 24 Z M 623.351 22.4 L 642.083 22.4 L 641.685 24 L 638.496 24.8 L 636.503 27.2 L 634.909 32.8 L 632.518 42.4 L 629.329 56 L 626.141 68.8 L 626.141 73.6 L 630.923 74.8 L 630.923 76 L 610.995 76 L 610.995 74.8 L 614.582 74 L 616.974 72 L 619.365 64.4 L 623.351 47.6 L 627.336 31.2 L 627.735 26 L 626.141 24.4 L 622.952 24 Z" fill="rgb(254,254,254)"></path></svg>